<svg width="316" height="56" viewBox="0 0 316 56" fill="none" xmlns="http://www.w3.org/2000/svg">
<path d="M46.3115 0.546875V56H33.9336L12.9863 20.1611V56H0.570312V0.546875H12.9863L33.9717 36.3857V0.546875H46.3115ZM68.7061 0.546875V56H56.3281V0.546875H68.7061ZM114.904 46.4023V56H86.9111V46.4023H114.904ZM91.1387 0.546875V56H78.7227V0.546875H91.1387ZM138.518 0.546875V56H126.14V0.546875H138.518ZM155.39 0.546875V10.1826H109.61V0.546875H155.39ZM173.938 0.546875V56H161.521V0.546875H173.938ZM195.761 23.9316V33.5293H170.472V23.9316H195.761ZM198.198 0.546875V10.1826H170.472V0.546875H198.198ZM240.436 46.4023V56H212.442V46.4023H240.436ZM216.67 0.546875V56H204.254V0.546875H216.67ZM259.745 0.546875V56H247.367V0.546875H259.745ZM280.959 0.546875L290.709 19.4375L300.459 0.546875H314.627L298.859 28.0449L315.046 56H300.764L290.709 36.7666L280.692 56H266.372L282.597 28.0449L266.791 0.546875H280.959Z" fill="#FF0000"/>
</svg>
